<svg width="971" height="176" viewBox="0 0 971 176" fill="none" xmlns="http://www.w3.org/2000/svg">
<path d="M81.2159 144.727V168H79.1477L65.3977 148.511H65.2159V168H63.0909V144.727H65.1477L78.9432 164.239H79.125V144.727H81.2159ZM108.995 144.727H111.12V160.136C111.12 161.72 110.749 163.136 110.006 164.386C109.264 165.629 108.23 166.61 106.904 167.33C105.586 168.042 104.052 168.398 102.302 168.398C100.559 168.398 99.0251 168.038 97.6993 167.318C96.3736 166.598 95.3395 165.617 94.597 164.375C93.8546 163.133 93.4834 161.72 93.4834 160.136V144.727H95.6084V159.989C95.6084 161.223 95.8849 162.326 96.438 163.295C96.991 164.258 97.7675 165.015 98.7675 165.568C99.7751 166.121 100.953 166.398 102.302 166.398C103.65 166.398 104.828 166.121 105.836 165.568C106.843 165.015 107.62 164.258 108.165 163.295C108.718 162.326 108.995 161.223 108.995 159.989V144.727ZM121.967 146.636V144.727H138.842V146.636H131.467V168H129.342V146.636H121.967ZM149.706 168V144.727H157.217C158.869 144.727 160.248 145.027 161.354 145.625C162.467 146.216 163.304 147.038 163.865 148.091C164.433 149.136 164.717 150.337 164.717 151.693C164.717 153.049 164.433 154.246 163.865 155.284C163.304 156.322 162.471 157.133 161.365 157.716C160.259 158.299 158.888 158.591 157.251 158.591H150.854V156.648H157.195C158.407 156.648 159.414 156.447 160.217 156.045C161.028 155.644 161.63 155.072 162.024 154.33C162.426 153.587 162.626 152.708 162.626 151.693C162.626 150.678 162.426 149.792 162.024 149.034C161.623 148.269 161.017 147.678 160.206 147.261C159.403 146.845 158.388 146.636 157.16 146.636H151.831V168H149.706ZM159.967 157.5L165.695 168H163.24L157.57 157.5H159.967ZM178.098 144.727V168H175.973V144.727H178.098ZM208.593 152H206.457C206.298 151.205 206.01 150.47 205.593 149.795C205.184 149.114 204.669 148.519 204.048 148.011C203.427 147.504 202.722 147.11 201.934 146.83C201.146 146.549 200.294 146.409 199.377 146.409C197.908 146.409 196.567 146.792 195.355 147.557C194.15 148.322 193.184 149.447 192.457 150.932C191.737 152.409 191.377 154.22 191.377 156.364C191.377 158.523 191.737 160.341 192.457 161.818C193.184 163.295 194.15 164.417 195.355 165.182C196.567 165.939 197.908 166.318 199.377 166.318C200.294 166.318 201.146 166.178 201.934 165.898C202.722 165.617 203.427 165.227 204.048 164.727C204.669 164.22 205.184 163.625 205.593 162.943C206.01 162.261 206.298 161.523 206.457 160.727H208.593C208.404 161.795 208.048 162.792 207.525 163.716C207.01 164.633 206.351 165.436 205.548 166.125C204.752 166.814 203.836 167.352 202.798 167.739C201.76 168.125 200.62 168.318 199.377 168.318C197.423 168.318 195.688 167.83 194.173 166.852C192.658 165.867 191.468 164.481 190.605 162.693C189.748 160.905 189.32 158.795 189.32 156.364C189.32 153.932 189.748 151.822 190.605 150.034C191.468 148.246 192.658 146.864 194.173 145.886C195.688 144.902 197.423 144.409 199.377 144.409C200.62 144.409 201.76 144.602 202.798 144.989C203.836 145.367 204.752 145.905 205.548 146.602C206.351 147.292 207.01 148.095 207.525 149.011C208.048 149.928 208.404 150.924 208.593 152ZM221.79 144.727V168H219.665V144.727H221.79ZM253.137 156.364C253.137 158.788 252.705 160.898 251.841 162.693C250.978 164.481 249.788 165.867 248.273 166.852C246.765 167.83 245.031 168.318 243.069 168.318C241.106 168.318 239.368 167.83 237.853 166.852C236.345 165.867 235.159 164.481 234.296 162.693C233.44 160.898 233.012 158.788 233.012 156.364C233.012 153.939 233.44 151.833 234.296 150.045C235.159 148.25 236.349 146.864 237.864 145.886C239.379 144.902 241.114 144.409 243.069 144.409C245.031 144.409 246.765 144.902 248.273 145.886C249.788 146.864 250.978 148.25 251.841 150.045C252.705 151.833 253.137 153.939 253.137 156.364ZM251.069 156.364C251.069 154.28 250.72 152.496 250.023 151.011C249.326 149.519 248.375 148.379 247.171 147.591C245.966 146.803 244.599 146.409 243.069 146.409C241.546 146.409 240.182 146.803 238.978 147.591C237.773 148.379 236.819 149.515 236.114 151C235.417 152.485 235.069 154.273 235.069 156.364C235.069 158.447 235.417 160.231 236.114 161.716C236.811 163.201 237.762 164.341 238.966 165.136C240.171 165.924 241.538 166.318 243.069 166.318C244.599 166.318 245.966 165.924 247.171 165.136C248.383 164.348 249.337 163.212 250.034 161.727C250.731 160.235 251.076 158.447 251.069 156.364ZM282.481 144.727V168H280.413L266.663 148.511H266.481V168H264.356V144.727H266.413L280.208 164.239H280.39V144.727H282.481ZM296.873 144.727V168H294.748V144.727H296.873ZM321.777 150.545C321.648 149.25 321.077 148.22 320.061 147.455C319.046 146.689 317.77 146.307 316.232 146.307C315.148 146.307 314.194 146.492 313.368 146.864C312.55 147.235 311.906 147.75 311.436 148.409C310.974 149.061 310.743 149.803 310.743 150.636C310.743 151.25 310.876 151.788 311.141 152.25C311.406 152.712 311.762 153.11 312.209 153.443C312.664 153.769 313.164 154.049 313.709 154.284C314.262 154.519 314.819 154.716 315.38 154.875L317.834 155.58C318.577 155.784 319.319 156.045 320.061 156.364C320.804 156.682 321.482 157.083 322.095 157.568C322.717 158.045 323.213 158.633 323.584 159.33C323.963 160.019 324.152 160.848 324.152 161.818C324.152 163.061 323.83 164.178 323.186 165.17C322.542 166.163 321.618 166.951 320.414 167.534C319.209 168.11 317.766 168.398 316.084 168.398C314.501 168.398 313.126 168.136 311.959 167.614C310.792 167.083 309.876 166.352 309.209 165.42C308.542 164.489 308.167 163.409 308.084 162.182H310.266C310.342 163.098 310.645 163.875 311.175 164.511C311.705 165.148 312.395 165.633 313.243 165.966C314.092 166.292 315.039 166.455 316.084 166.455C317.243 166.455 318.273 166.261 319.175 165.875C320.084 165.481 320.796 164.936 321.311 164.239C321.834 163.534 322.095 162.716 322.095 161.784C322.095 160.996 321.891 160.337 321.482 159.807C321.073 159.269 320.501 158.818 319.766 158.455C319.039 158.091 318.194 157.769 317.232 157.489L314.448 156.67C312.622 156.125 311.205 155.371 310.198 154.409C309.19 153.447 308.686 152.22 308.686 150.727C308.686 149.477 309.02 148.379 309.686 147.432C310.361 146.477 311.27 145.735 312.414 145.205C313.565 144.667 314.857 144.398 316.289 144.398C317.736 144.398 319.016 144.663 320.13 145.193C321.243 145.723 322.126 146.455 322.777 147.386C323.436 148.311 323.789 149.364 323.834 150.545H321.777ZM333.937 146.636V144.727H350.812V146.636H343.437V168H341.312V146.636H333.937ZM358.991 168H356.764L365.23 144.727H367.503L375.969 168H373.741L366.446 147.489H366.287L358.991 168ZM360.594 159.08H372.139V160.989H360.594V159.08ZM410.117 155.409V157.318H400.435V155.409H410.117ZM436.777 168V144.727H450.277V146.636H438.902V155.398H449.561V157.307H438.902V166.091H450.504V168H436.777ZM474.494 150.545C474.365 149.25 473.793 148.22 472.778 147.455C471.762 146.689 470.486 146.307 468.948 146.307C467.865 146.307 466.91 146.492 466.084 146.864C465.266 147.235 464.622 147.75 464.153 148.409C463.69 149.061 463.459 149.803 463.459 150.636C463.459 151.25 463.592 151.788 463.857 152.25C464.122 152.712 464.478 153.11 464.925 153.443C465.38 153.769 465.88 154.049 466.425 154.284C466.978 154.519 467.535 154.716 468.096 154.875L470.55 155.58C471.293 155.784 472.035 156.045 472.778 156.364C473.52 156.682 474.198 157.083 474.812 157.568C475.433 158.045 475.929 158.633 476.3 159.33C476.679 160.019 476.869 160.848 476.869 161.818C476.869 163.061 476.547 164.178 475.903 165.17C475.259 166.163 474.334 166.951 473.13 167.534C471.925 168.11 470.482 168.398 468.8 168.398C467.217 168.398 465.842 168.136 464.675 167.614C463.509 167.083 462.592 166.352 461.925 165.42C461.259 164.489 460.884 163.409 460.8 162.182H462.982C463.058 163.098 463.361 163.875 463.891 164.511C464.422 165.148 465.111 165.633 465.959 165.966C466.808 166.292 467.755 166.455 468.8 166.455C469.959 166.455 470.99 166.261 471.891 165.875C472.8 165.481 473.512 164.936 474.028 164.239C474.55 163.534 474.812 162.716 474.812 161.784C474.812 160.996 474.607 160.337 474.198 159.807C473.789 159.269 473.217 158.818 472.482 158.455C471.755 158.091 470.91 157.769 469.948 157.489L467.164 156.67C465.338 156.125 463.922 155.371 462.914 154.409C461.906 153.447 461.403 152.22 461.403 150.727C461.403 149.477 461.736 148.379 462.403 147.432C463.077 146.477 463.986 145.735 465.13 145.205C466.281 144.667 467.573 144.398 469.005 144.398C470.452 144.398 471.732 144.663 472.846 145.193C473.959 145.723 474.842 146.455 475.494 147.386C476.153 148.311 476.505 149.364 476.55 150.545H474.494ZM488.062 168V144.727H495.574C497.225 144.727 498.604 145.045 499.71 145.682C500.824 146.311 501.661 147.167 502.221 148.25C502.789 149.333 503.074 150.553 503.074 151.909C503.074 153.265 502.793 154.489 502.233 155.58C501.672 156.663 500.839 157.523 499.733 158.159C498.627 158.788 497.252 159.102 495.608 159.102H489.699V157.193H495.551C496.77 157.193 497.782 156.966 498.585 156.511C499.388 156.049 499.986 155.42 500.38 154.625C500.782 153.83 500.983 152.924 500.983 151.909C500.983 150.894 500.782 149.989 500.38 149.193C499.986 148.398 499.384 147.773 498.574 147.318C497.77 146.864 496.752 146.636 495.517 146.636H490.187V168H488.062ZM533.222 156.364C533.222 158.788 532.79 160.898 531.926 162.693C531.063 164.481 529.873 165.867 528.358 166.852C526.85 167.83 525.116 168.318 523.154 168.318C521.191 168.318 519.453 167.83 517.938 166.852C516.43 165.867 515.244 164.481 514.381 162.693C513.525 160.898 513.097 158.788 513.097 156.364C513.097 153.939 513.525 151.833 514.381 150.045C515.244 148.25 516.434 146.864 517.949 145.886C519.464 144.902 521.199 144.409 523.154 144.409C525.116 144.409 526.85 144.902 528.358 145.886C529.873 146.864 531.063 148.25 531.926 150.045C532.79 151.833 533.222 153.939 533.222 156.364ZM531.154 156.364C531.154 154.28 530.805 152.496 530.108 151.011C529.411 149.519 528.46 148.379 527.256 147.591C526.051 146.803 524.684 146.409 523.154 146.409C521.631 146.409 520.267 146.803 519.063 147.591C517.858 148.379 516.904 149.515 516.199 151C515.502 152.485 515.154 154.273 515.154 156.364C515.154 158.447 515.502 160.231 516.199 161.716C516.896 163.201 517.847 164.341 519.051 165.136C520.256 165.924 521.623 166.318 523.154 166.318C524.684 166.318 526.051 165.924 527.256 165.136C528.468 164.348 529.422 163.212 530.119 161.727C530.816 160.235 531.161 158.447 531.154 156.364ZM544.441 168V144.727H551.952C553.604 144.727 554.983 145.027 556.089 145.625C557.202 146.216 558.039 147.038 558.6 148.091C559.168 149.136 559.452 150.337 559.452 151.693C559.452 153.049 559.168 154.246 558.6 155.284C558.039 156.322 557.206 157.133 556.1 157.716C554.994 158.299 553.623 158.591 551.986 158.591H545.589V156.648H551.93C553.142 156.648 554.149 156.447 554.952 156.045C555.763 155.644 556.365 155.072 556.759 154.33C557.161 153.587 557.361 152.708 557.361 151.693C557.361 150.678 557.161 149.792 556.759 149.034C556.358 148.269 555.752 147.678 554.941 147.261C554.138 146.845 553.123 146.636 551.895 146.636H546.566V168H544.441ZM554.702 157.5L560.43 168H557.975L552.305 157.5H554.702ZM569.299 146.636V144.727H586.174V146.636H578.799V168H576.674V146.636H569.299ZM599.163 144.727V168H597.038V144.727H599.163ZM611.465 144.727L618.738 165.239H618.942L626.215 144.727H628.442L619.976 168H617.704L609.238 144.727H611.465ZM636.545 168H634.318L642.784 144.727H645.056L653.522 168H651.295L644 147.489H643.84L636.545 168ZM638.147 159.08H649.693V160.989H638.147V159.08ZM678.671 168V144.727H692.171V146.636H680.796V155.398H691.455V157.307H680.796V166.091H692.398V168H678.671ZM718.831 168V144.727H732.331V146.636H720.956V155.398H731.615V157.307H720.956V166.091H732.558V168H718.831ZM756.547 150.545C756.418 149.25 755.847 148.22 754.831 147.455C753.816 146.689 752.54 146.307 751.002 146.307C749.918 146.307 748.964 146.492 748.138 146.864C747.32 147.235 746.676 147.75 746.206 148.409C745.744 149.061 745.513 149.803 745.513 150.636C745.513 151.25 745.646 151.788 745.911 152.25C746.176 152.712 746.532 153.11 746.979 153.443C747.434 153.769 747.934 154.049 748.479 154.284C749.032 154.519 749.589 154.716 750.15 154.875L752.604 155.58C753.347 155.784 754.089 156.045 754.831 156.364C755.574 156.682 756.252 157.083 756.865 157.568C757.487 158.045 757.983 158.633 758.354 159.33C758.733 160.019 758.922 160.848 758.922 161.818C758.922 163.061 758.6 164.178 757.956 165.17C757.312 166.163 756.388 166.951 755.184 167.534C753.979 168.11 752.536 168.398 750.854 168.398C749.271 168.398 747.896 168.136 746.729 167.614C745.562 167.083 744.646 166.352 743.979 165.42C743.312 164.489 742.937 163.409 742.854 162.182H745.036C745.112 163.098 745.415 163.875 745.945 164.511C746.475 165.148 747.165 165.633 748.013 165.966C748.862 166.292 749.809 166.455 750.854 166.455C752.013 166.455 753.043 166.261 753.945 165.875C754.854 165.481 755.566 164.936 756.081 164.239C756.604 163.534 756.865 162.716 756.865 161.784C756.865 160.996 756.661 160.337 756.252 159.807C755.843 159.269 755.271 158.818 754.536 158.455C753.809 158.091 752.964 157.769 752.002 157.489L749.218 156.67C747.392 156.125 745.975 155.371 744.968 154.409C743.96 153.447 743.456 152.22 743.456 150.727C743.456 149.477 743.79 148.379 744.456 147.432C745.131 146.477 746.04 145.735 747.184 145.205C748.335 144.667 749.627 144.398 751.059 144.398C752.506 144.398 753.786 144.663 754.9 145.193C756.013 145.723 756.896 146.455 757.547 147.386C758.206 148.311 758.559 149.364 758.604 150.545H756.547ZM768.707 146.636V144.727H785.582V146.636H778.207V168H776.082V146.636H768.707ZM796.446 168V144.727H809.946V146.636H798.571V155.398H809.23V157.307H798.571V166.091H810.173V168H796.446ZM802.253 142.307L805.162 137.148H807.56L804.071 142.307H802.253ZM820.117 146.636V144.727H836.992V146.636H829.617V168H827.492V146.636H820.117ZM849.981 144.727V168H847.856V144.727H849.981ZM880.476 152H878.339C878.18 151.205 877.892 150.47 877.476 149.795C877.067 149.114 876.551 148.519 875.93 148.011C875.309 147.504 874.604 147.11 873.817 146.83C873.029 146.549 872.176 146.409 871.26 146.409C869.79 146.409 868.449 146.792 867.237 147.557C866.032 148.322 865.067 149.447 864.339 150.932C863.62 152.409 863.26 154.22 863.26 156.364C863.26 158.523 863.62 160.341 864.339 161.818C865.067 163.295 866.032 164.417 867.237 165.182C868.449 165.939 869.79 166.318 871.26 166.318C872.176 166.318 873.029 166.178 873.817 165.898C874.604 165.617 875.309 165.227 875.93 164.727C876.551 164.22 877.067 163.625 877.476 162.943C877.892 162.261 878.18 161.523 878.339 160.727H880.476C880.286 161.795 879.93 162.792 879.407 163.716C878.892 164.633 878.233 165.436 877.43 166.125C876.635 166.814 875.718 167.352 874.68 167.739C873.642 168.125 872.502 168.318 871.26 168.318C869.305 168.318 867.57 167.83 866.055 166.852C864.54 165.867 863.351 164.481 862.487 162.693C861.631 160.905 861.203 158.795 861.203 156.364C861.203 153.932 861.631 151.822 862.487 150.034C863.351 148.246 864.54 146.864 866.055 145.886C867.57 144.902 869.305 144.409 871.26 144.409C872.502 144.409 873.642 144.602 874.68 144.989C875.718 145.367 876.635 145.905 877.43 146.602C878.233 147.292 878.892 148.095 879.407 149.011C879.93 149.928 880.286 150.924 880.476 152ZM891.581 168H889.354L897.82 144.727H900.093L908.559 168H906.331L899.036 147.489H898.877L891.581 168ZM893.184 159.08H904.729V160.989H893.184V159.08Z" fill="#09090B"/>
<path d="M41.9833 119.866C36.6774 119.866 31.7694 118.904 27.2593 116.981C22.8156 115.058 18.9024 112.372 15.5199 108.923C12.2037 105.474 9.61703 101.428 7.75995 96.7853C5.90287 92.1426 4.97433 87.0688 4.97433 81.5639C4.97433 76.059 5.86971 70.9851 7.66047 66.3424C9.51755 61.6334 12.1042 57.5876 15.4204 54.2051C18.803 50.7562 22.7493 48.1032 27.2593 46.2461C31.7694 44.3227 36.6774 43.361 41.9833 43.361C47.2893 43.361 52.0315 44.2564 56.2099 46.0472C60.4547 47.8379 64.0362 50.2256 66.9545 53.2102C69.8727 56.1285 71.9619 59.3452 73.2221 62.8604L61.0847 68.5311C59.6919 64.817 57.3374 61.7661 54.0212 59.3784C50.705 56.9244 46.6924 55.6974 41.9833 55.6974C37.3406 55.6974 33.2285 56.7917 29.647 58.9804C26.1318 61.1691 23.3793 64.1869 21.3896 68.0337C19.4662 71.8805 18.5045 76.3906 18.5045 81.5639C18.5045 86.7372 19.4662 91.2804 21.3896 95.1935C23.3793 99.0403 26.1318 102.058 29.647 104.247C33.2285 106.436 37.3406 107.53 41.9833 107.53C46.6924 107.53 50.705 106.336 54.0212 103.948C57.3374 101.494 59.6919 98.4103 61.0847 94.6961L73.2221 100.367C71.9619 103.882 69.8727 107.132 66.9545 110.117C64.0362 113.035 60.4547 115.389 56.2099 117.18C52.0315 118.971 47.2893 119.866 41.9833 119.866ZM102.138 118.672V85.8418L77.1666 44.5549H92.587L111.688 76.7885H106.217L125.219 44.5549H140.639L115.767 85.7423V118.672H102.138ZM148.912 118.672V44.5549H159.458L200.247 99.4715L194.775 100.566V44.5549H208.305V118.672H197.66L157.468 63.3578L162.442 62.2635V118.672H148.912ZM235.785 118.672V56.4933H216.584V44.5549H268.317V56.4933H249.414V118.672H235.785ZM276.573 118.672V44.5549H290.104V118.672H276.573ZM298.291 118.672L323.859 44.5549H341.369L366.937 118.672H352.213L346.94 102.755H318.288L312.916 118.672H298.291ZM322.168 90.8161H343.06L330.724 53.9066H334.504L322.168 90.8161Z" fill="#09090B"/>
<path d="M375.186 118.672V44.5549H424.63V56.4933H388.716V76.9875H420.154V88.9259H388.716V118.672H375.186ZM433.478 118.672V44.5549H461.036C466.077 44.5549 470.521 45.4834 474.367 47.3405C478.281 49.1313 481.332 51.7842 483.52 55.2994C485.709 58.7483 486.803 62.9599 486.803 67.9342C486.803 73.0412 485.576 77.3854 483.122 80.967C480.735 84.5485 477.485 87.2014 473.373 88.9259L490.385 118.672H475.064L456.858 86.1403L465.613 91.3136H447.009V118.672H433.478ZM447.009 79.3752H461.235C463.689 79.3752 465.812 78.9109 467.602 77.9824C469.393 76.9875 470.786 75.6278 471.781 73.9034C472.776 72.179 473.273 70.1892 473.273 67.9342C473.273 65.6129 472.776 63.6231 471.781 61.965C470.786 60.2406 469.393 58.9141 467.602 57.9856C465.812 56.9907 463.689 56.4933 461.235 56.4933H447.009V79.3752ZM493.184 118.672L518.752 44.5549H536.261L561.829 118.672H547.105L541.833 102.755H513.18L507.808 118.672H493.184ZM517.06 90.8161H537.953L525.616 53.9066H529.397L517.06 90.8161ZM570.078 118.672V44.5549H580.624L621.413 99.4715L615.942 100.566V44.5549H629.472V118.672H618.827L578.634 63.3578L583.608 62.2635V118.672H570.078ZM678.639 119.866C673.333 119.866 668.425 118.904 663.915 116.981C659.471 115.058 655.558 112.372 652.176 108.923C648.859 105.474 646.273 101.428 644.416 96.7853C642.559 92.1426 641.63 87.0688 641.63 81.5639C641.63 76.059 642.525 70.9851 644.316 66.3424C646.173 61.6334 648.76 57.5876 652.076 54.2051C655.459 50.7562 659.405 48.1032 663.915 46.2461C668.425 44.3227 673.333 43.361 678.639 43.361C683.945 43.361 688.687 44.2564 692.866 46.0472C697.11 47.8379 700.692 50.2256 703.61 53.2102C706.528 56.1285 708.618 59.3452 709.878 62.8604L697.74 68.5311C696.348 64.817 693.993 61.7661 690.677 59.3784C687.361 56.9244 683.348 55.6974 678.639 55.6974C673.996 55.6974 669.884 56.7917 666.303 58.9804C662.788 61.1691 660.035 64.1869 658.045 68.0337C656.122 71.8805 655.16 76.3906 655.16 81.5639C655.16 86.7372 656.122 91.2804 658.045 95.1935C660.035 99.0403 662.788 102.058 666.303 104.247C669.884 106.436 673.996 107.53 678.639 107.53C683.348 107.53 687.361 106.336 690.677 103.948C693.993 101.494 696.348 98.4103 697.74 94.6961L709.878 100.367C708.618 103.882 706.528 107.132 703.61 110.117C700.692 113.035 697.11 115.389 692.866 117.18C688.687 118.971 683.945 119.866 678.639 119.866ZM720.862 118.672V44.5549H734.393V118.672H720.862ZM775.112 119.866C770.403 119.866 766.026 119.004 761.98 117.28C758.001 115.555 754.552 113.167 751.633 110.117C748.781 106.999 746.692 103.385 745.366 99.2725L756.608 94.3976C758.398 98.6424 760.985 101.992 764.368 104.446C767.75 106.833 771.564 108.027 775.809 108.027C778.196 108.027 780.252 107.663 781.977 106.933C783.768 106.137 785.127 105.076 786.056 103.749C787.051 102.423 787.548 100.831 787.548 98.974C787.548 96.7853 786.885 94.9946 785.558 93.6018C784.298 92.1426 782.375 91.0151 779.788 90.2192L765.562 85.6428C759.791 83.8521 755.447 81.1659 752.529 77.5844C749.611 74.0029 748.151 69.7913 748.151 64.9496C748.151 60.7049 749.179 56.9575 751.235 53.7076C753.358 50.4577 756.276 47.9374 759.99 46.1467C763.771 44.2896 768.082 43.361 772.924 43.361C777.367 43.361 781.446 44.1569 785.16 45.7487C788.875 47.2742 792.058 49.4297 794.711 52.2153C797.43 54.9346 799.453 58.1514 800.78 61.8655L789.637 66.8399C788.178 63.1257 785.989 60.2738 783.071 58.284C780.153 56.228 776.77 55.1999 772.924 55.1999C770.669 55.1999 768.679 55.5979 766.954 56.3938C765.23 57.1233 763.87 58.1845 762.875 59.5773C761.947 60.9038 761.483 62.4956 761.483 64.3527C761.483 66.4088 762.146 68.2327 763.472 69.8245C764.799 71.3499 766.822 72.5438 769.541 73.406L783.171 77.6839C789.074 79.6073 793.484 82.2603 796.402 85.6428C799.387 89.0254 800.879 93.2038 800.879 98.1781C800.879 102.423 799.785 106.17 797.596 109.42C795.407 112.67 792.39 115.223 788.543 117.081C784.696 118.938 780.219 119.866 775.112 119.866ZM847.883 119.866C842.577 119.866 837.669 118.904 833.159 116.981C828.715 115.058 824.802 112.372 821.419 108.923C818.103 105.474 815.516 101.428 813.659 96.7853C811.802 92.1426 810.874 87.0688 810.874 81.5639C810.874 76.059 811.769 70.9851 813.56 66.3424C815.417 61.6334 818.004 57.5876 821.32 54.2051C824.702 50.7562 828.649 48.1032 833.159 46.2461C837.669 44.3227 842.577 43.361 847.883 43.361C853.189 43.361 857.931 44.2564 862.109 46.0472C866.354 47.8379 869.936 50.2256 872.854 53.2102C875.772 56.1285 877.861 59.3452 879.122 62.8604L866.984 68.5311C865.591 64.817 863.237 61.7661 859.921 59.3784C856.604 56.9244 852.592 55.6974 847.883 55.6974C843.24 55.6974 839.128 56.7917 835.546 58.9804C832.031 61.1691 829.279 64.1869 827.289 68.0337C825.366 71.8805 824.404 76.3906 824.404 81.5639C824.404 86.7372 825.366 91.2804 827.289 95.1935C829.279 99.0403 832.031 102.058 835.546 104.247C839.128 106.436 843.24 107.53 847.883 107.53C852.592 107.53 856.604 106.336 859.921 103.948C863.237 101.494 865.591 98.4103 866.984 94.6961L879.122 100.367C877.861 103.882 875.772 107.132 872.854 110.117C869.936 113.035 866.354 115.389 862.109 117.18C857.931 118.971 853.189 119.866 847.883 119.866ZM926.618 119.866C921.179 119.866 916.105 118.904 911.396 116.981C906.687 115.058 902.575 112.372 899.06 108.923C895.545 105.474 892.792 101.428 890.803 96.7853C888.879 92.0763 887.918 87.0025 887.918 81.5639C887.918 76.059 888.879 70.9851 890.803 66.3424C892.726 61.6997 895.445 57.6539 898.961 54.2051C902.476 50.7562 906.588 48.1032 911.297 46.2461C916.006 44.3227 921.113 43.361 926.618 43.361C932.123 43.361 937.23 44.3227 941.939 46.2461C946.648 48.1696 950.76 50.8557 954.275 54.3046C957.79 57.6871 960.51 61.6997 962.433 66.3424C964.423 70.9851 965.418 76.059 965.418 81.5639C965.418 87.0025 964.423 92.0763 962.433 96.7853C960.443 101.428 957.691 105.474 954.176 108.923C950.66 112.372 946.548 115.058 941.839 116.981C937.197 118.904 932.123 119.866 926.618 119.866ZM926.618 107.53C930.266 107.53 933.615 106.9 936.666 105.64C939.717 104.313 942.37 102.489 944.625 100.168C946.946 97.8465 948.704 95.094 949.898 91.9105C951.158 88.7269 951.788 85.278 951.788 81.5639C951.788 77.8497 951.158 74.434 949.898 71.3168C948.704 68.1332 946.946 65.3807 944.625 63.0594C942.37 60.6717 939.717 58.8478 936.666 57.5876C933.615 56.3275 930.266 55.6974 926.618 55.6974C923.036 55.6974 919.72 56.3275 916.669 57.5876C913.618 58.8478 910.932 60.6717 908.611 63.0594C906.356 65.3807 904.598 68.1332 903.338 71.3168C902.078 74.434 901.448 77.8497 901.448 81.5639C901.448 85.278 902.078 88.7269 903.338 91.9105C904.598 95.094 906.356 97.8465 908.611 100.168C910.932 102.489 913.618 104.313 916.669 105.64C919.72 106.9 923.036 107.53 926.618 107.53Z" fill="#A6C300"/>
<path d="M744.427 16.143C734.775 20.6194 730.364 24.7552 723.978 34.5302M723.978 34.5302C724.874 14.4637 728.999 5.78932 757.737 5.52008C752.146 35.7783 741.541 34.1225 723.978 34.5302Z" stroke="#A6C300" stroke-width="4"/>
</svg>
